<svg width="160" height="19" viewBox="0 0 160 19" fill="none" xmlns="http://www.w3.org/2000/svg">
<g clip-path="url(#clip0_46_3841)">
<path fill-rule="evenodd" clip-rule="evenodd" d="M84.3924 6.45429C83.5306 4.96893 82.0697 4.0174 79.9871 4.0174C77.0895 4.0174 75.0664 6.20109 75.0664 9.49758C75.0664 12.7941 77.0895 15.0826 79.9871 15.0826C82.1068 15.0826 83.6772 14.102 84.5389 12.6151L87.981 14.831C86.1947 17.7114 83.7255 18.9984 80.0145 18.9984C75.3451 18.9984 70.4196 15.5713 70.4196 9.4992C70.4196 3.42713 75.2855 0 79.9565 0C83.7851 0 86.1947 1.28699 87.981 4.16739L84.3924 6.45429ZM16.3824 0.277397H10.6209L4.66457 8.25414V0.277397H0V18.7339H4.66457V13.8956L6.42989 11.8442L11.0494 18.7339H16.6498L9.5788 8.18479L16.3824 0.277397ZM20.0532 0.277397H24.7177V18.7355H20.0532V0.277397ZM42.437 11.1684L33.7779 0.277397H30.1651V18.7339H34.4028V8.30414L42.6947 18.7339H46.6731V0.277397H42.437V11.1684ZM60.662 3.04007H57.6758V7.94933H52.805V10.9604H57.6758V15.8712H60.662V10.9604H65.5327V7.94933H60.662V3.04007ZM124.695 7.04295C124.695 3.30294 122.052 0.272554 118.016 0.272554L109.866 0.27578V18.7339H114.53V13.815H116.924L120.222 18.7355H125.47L121.548 12.8844C123.521 11.7071 124.695 9.53306 124.695 7.04295ZM117.015 10.0766H114.532V4.00933H117.015C118.808 4.00933 120.103 5.24794 120.103 7.04295C120.103 8.83957 118.808 10.0766 117.015 10.0766ZM88.8701 18.7355L96.6111 0.277397H99.5683L107.309 18.7355H102.596L101.609 16.1277H94.5687L93.5814 18.7355H88.8701ZM98.0897 6.82684L95.8138 12.8376H100.366L98.0897 6.82684ZM152.259 0.277397H149.302L141.561 18.7355H146.274L147.261 16.1277H154.301L155.289 18.7355H160.002L152.259 0.277397ZM148.504 12.8376L150.78 6.82684L153.056 12.8376H148.504ZM127.549 0.277397H142.292V4.00611H137.252V18.7339H132.588V4.00611H127.549V0.277397Z" fill="#3C3C3C"/>
</g>
<defs>
<clipPath id="clip0_46_3841">
<rect width="160" height="19" fill="white"/>
</clipPath>
</defs>
</svg>
